<?xml version="1.0" encoding="UTF-8" standalone="no" ?>
<!DOCTYPE svg PUBLIC "-//W3C//DTD SVG 1.1//EN" "http://www.w3.org/Graphics/SVG/1.1/DTD/svg11.dtd">
<svg xmlns="http://www.w3.org/2000/svg" xmlns:xlink="http://www.w3.org/1999/xlink" version="1.1" width="140" height="20" viewBox="0 0 140 20" xml:space="preserve">
<desc>Created with Fabric.js 4.6.0</desc>
<defs>
</defs>
<g transform="matrix(1 0 0 1 85.69 10.57)" id="2DN-G4Nszhq70A1IUpNbp"  >
<path style="stroke: none; stroke-width: 1; stroke-dasharray: none; stroke-linecap: butt; stroke-dashoffset: 0; stroke-linejoin: miter; stroke-miterlimit: 4; fill: rgb(255,255,255); fill-rule: nonzero; opacity: 1;" vector-effect="non-scaling-stroke"  transform=" translate(-85.17, -9.85)" d="M 37.754 15.847 C 40.605999999999995 15.847 42.906 14.225 43.705999999999996 11.631 L 39.809 11.631 C 39.433 12.296 38.669 12.697000000000001 37.754 12.697000000000001 C 36.516999999999996 12.697000000000001 35.689 12.023000000000001 35.434 10.719000000000001 L 43.873999999999995 10.719000000000001 C 43.925 10.367 43.955 10.025000000000002 43.955 9.682000000000002 C 43.955 6.347000000000002 41.418 3.732000000000002 37.754 3.732000000000002 C 34.186 3.732000000000002 31.578999999999997 6.296000000000002 31.578999999999997 9.781000000000002 C 31.578999999999997 13.254000000000001 34.206999999999994 15.847000000000001 37.754 15.847000000000001 z M 40.098 8.55 L 35.501999999999995 8.55 C 35.818999999999996 7.421000000000001 36.611999999999995 6.801 37.754 6.801 C 38.934999999999995 6.801 39.754 7.414 40.098 8.551 z M 51.044 15.846 C 52.364 15.846 53.544 15.412 54.474 14.658 L 54.809999999999995 15.462 L 57.836999999999996 15.462 L 57.836999999999996 4.093 L 54.918 4.093 L 54.518 4.973 C 53.578 4.1979999999999995 52.383 3.751 51.044 3.751 C 47.568 3.751 45.083 6.256 45.083 9.777 C 45.083 13.309999999999999 47.568 15.847 51.044 15.847 z M 51.568 12.379 C 50.101 12.379 49.022999999999996 11.270999999999999 49.022999999999996 9.786 C 49.022999999999996 8.311 50.092 7.202999999999999 51.568 7.202999999999999 C 53.034 7.202999999999999 54.111999999999995 8.311 54.111999999999995 9.786 C 54.111999999999995 11.270999999999999 53.03399999999999 12.379 51.568 12.379 z M 64.691 15.846 C 67.711 15.846 69.71600000000001 14.292 69.71600000000001 11.916 C 69.71600000000001 9.033000000000001 67.32900000000001 8.66 65.53300000000002 8.341000000000001 C 64.45300000000002 8.148000000000001 63.58300000000001 7.997000000000001 63.58300000000001 7.351000000000001 C 63.58300000000001 6.824000000000001 64.00500000000001 6.513000000000001 64.63300000000001 6.513000000000001 C 65.343 6.513000000000001 65.83000000000001 6.8500000000000005 65.83000000000001 7.5760000000000005 L 69.49700000000001 7.5760000000000005 C 69.45300000000002 5.273000000000001 67.57700000000001 3.7330000000000005 64.68100000000001 3.7330000000000005 C 61.76900000000001 3.7330000000000005 59.82700000000001 5.203 59.82700000000001 7.4830000000000005 C 59.82700000000001 10.24 62.164000000000016 10.772 63.927000000000014 11.057 C 65.01900000000002 11.238 65.87900000000002 11.425 65.87900000000002 12.081 C 65.87900000000002 12.668 65.33600000000001 12.961 64.76300000000002 12.961 C 64.02100000000002 12.961 63.44300000000002 12.578 63.44300000000002 11.747 L 59.673000000000016 11.747 C 59.70900000000002 14.21 61.59200000000001 15.847 64.69100000000002 15.847 z M 72.791 19.704 C 75.727 19.704 77.13499999999999 18.447 78.66799999999999 14.968 L 83.43199999999999 4.105 L 79.22599999999998 4.105 L 76.97699999999999 10.368 L 74.56499999999998 4.105 L 70.31 4.105 L 75.00800000000001 14.535 C 74.47800000000001 15.949 74.025 16.339 72.528 16.339 L 71.45 16.339 L 71.45 19.704 L 72.791 19.704 z M 91.295 15.846 C 94.795 15.846 97.268 13.331 97.268 9.798 C 97.268 6.265000000000001 94.796 3.75 91.295 3.75 C 90.29857483930559 3.7422283735441724 89.31990957805176 4.013829635428423 88.47 4.534000000000002 L 88.47 0 L 84.6 0 L 84.6 15.474 L 87.497 15.474 L 87.867 14.63 C 88.79 15.401000000000002 89.96900000000001 15.846 91.295 15.846 z M 90.772 12.379 C 89.305 12.379 88.227 11.270999999999999 88.227 9.799 C 88.227 8.312999999999999 89.305 7.205 90.772 7.205 C 92.238 7.205 93.316 8.313 93.316 9.798 C 93.316 11.271 92.229 12.378 90.772 12.378 z M 104.37 15.846 C 105.69 15.846 106.87 15.412 107.80000000000001 14.658 L 108.13600000000001 15.462 L 111.16300000000001 15.462 L 111.16300000000001 4.093 L 108.245 4.093 L 107.84400000000001 4.973 C 106.90500000000002 4.1979999999999995 105.709 3.751 104.37 3.751 C 100.894 3.751 98.41000000000001 6.256 98.41000000000001 9.777 C 98.41000000000001 13.309999999999999 100.894 15.847 104.37 15.847 z M 104.894 12.379 C 103.427 12.379 102.349 11.270999999999999 102.349 9.786 C 102.349 8.311 103.419 7.202999999999999 104.894 7.202999999999999 C 106.361 7.202999999999999 107.43900000000001 8.311 107.43900000000001 9.786 C 107.43900000000001 11.270999999999999 106.361 12.379 104.894 12.379 z M 117.54700000000001 15.474 L 117.54700000000001 9.403 C 117.54700000000001 7.956 118.24900000000001 7.103000000000001 119.47000000000001 7.103000000000001 C 120.45600000000002 7.103000000000001 120.95300000000002 7.760000000000001 120.95300000000002 9.083 L 120.95300000000002 15.472999999999999 L 124.86800000000002 15.472999999999999 L 124.86800000000002 8.543 C 124.86800000000002 5.645999999999999 123.13500000000002 3.7699999999999996 120.49500000000002 3.7699999999999996 C 119.02500000000002 3.7699999999999996 117.76200000000001 4.334999999999999 116.91500000000002 5.278 L 116.37800000000001 4.106 L 113.63100000000001 4.106 L 113.63100000000001 15.475 L 117.54700000000001 15.475 z M 131.29500000000002 15.474 L 131.29500000000002 10.666 L 134.14300000000003 15.474 L 138.75900000000001 15.474 L 134.85700000000003 9.524000000000001 L 138.40000000000003 4.105000000000001 L 134.00300000000004 4.105000000000001 L 131.29500000000004 8.559000000000001 L 131.29500000000004 0 L 127.37900000000005 0 L 127.37900000000005 15.474 L 131.29500000000004 15.474 z" stroke-linecap="round" />
</g>
<g transform="matrix(1 0 0 1 8.91 10.57)" id="nHkDo4lsdWpCK8HN5qVM_"  >
<linearGradient id="SVGID_0" gradientUnits="objectBoundingBox" gradientTransform="matrix(1 0 0 1 0 0)"  x1="0.72195" y1="0" x2="0.17503" y2="1">
<stop offset="0%" style="stop-color:rgb(51,211,94);stop-opacity: 1"/>
<stop offset="100%" style="stop-color:rgb(42,182,217);stop-opacity: 1"/>
</linearGradient>
<path style="stroke: none; stroke-width: 1; stroke-dasharray: none; stroke-linecap: butt; stroke-dashoffset: 0; stroke-linejoin: miter; stroke-miterlimit: 4; fill: url(#SVGID_0); fill-rule: evenodd; opacity: 1;" vector-effect="non-scaling-stroke"  transform=" translate(-8.39, -9.85)" d="M 10.802 0 L 0 19.704 L 5.986 19.704 L 16.789 0 z" stroke-linecap="round" />
</g>
<g transform="matrix(1 0 0 1 16.28 10.57)" id="ylK9-f5RFGwMUfzNyM03a"  >
<linearGradient id="SVGID_1" gradientUnits="objectBoundingBox" gradientTransform="matrix(1 0 0 1 0 0)"  x1="0.72195" y1="0" x2="0.17503" y2="1">
<stop offset="0%" style="stop-color:rgb(51,211,94);stop-opacity: 1"/>
<stop offset="100%" style="stop-color:rgb(42,182,217);stop-opacity: 1"/>
</linearGradient>
<path style="stroke: none; stroke-width: 1; stroke-dasharray: none; stroke-linecap: butt; stroke-dashoffset: 0; stroke-linejoin: miter; stroke-miterlimit: 4; fill: url(#SVGID_1); fill-rule: evenodd; opacity: 0.5;" vector-effect="non-scaling-stroke"  transform=" translate(-15.76, -9.85)" d="M 18.171 0 L 7.368 19.704 L 13.354 19.704 L 24.157 0 z" stroke-linecap="round" />
</g>
<g transform="matrix(1 0 0 1 23.65 10.57)" id="F5dS3k5Id5vTj85jHCH9A"  >
<linearGradient id="SVGID_2" gradientUnits="userSpaceOnUse" gradientTransform="matrix(1 0 0 1 14.74 0)"  x1="0.72195" y1="0" x2="0.17503" y2="1">
<stop offset="0%" style="stop-color:rgb(51,211,94);stop-opacity: 1"/>
<stop offset="100%" style="stop-color:rgb(42,182,217);stop-opacity: 1"/>
</linearGradient>
<path style="stroke: none; stroke-width: 1; stroke-dasharray: none; stroke-linecap: butt; stroke-dashoffset: 0; stroke-linejoin: miter; stroke-miterlimit: 4; fill: url(#SVGID_2); fill-rule: evenodd; opacity: 0.15;" vector-effect="non-scaling-stroke"  transform=" translate(-23.13, -9.85)" d="M 25.539 0 L 14.737 19.704 L 20.723 19.704 L 31.525 0 z" stroke-linecap="round" />
</g>
</svg>